<?xml version="1.0" encoding="UTF-8"?>
<svg width="120px" height="120px" viewBox="0 0 512 512" version="1.1" xmlns="http://www.w3.org/2000/svg" xmlns:xlink="http://www.w3.org/1999/xlink">
    <title>EX3_logo</title>
    <defs>
        <linearGradient x1="52.5961153%" y1="27.8768621%" x2="34.6021477%" y2="78.1978872%" id="linearGradient-1">
            <stop stop-color="#0DCEF2" offset="0%"></stop>
            <stop stop-color="#BCDD3C" offset="100%"></stop>
        </linearGradient>
        <radialGradient cx="18.7496002%" cy="80.1015663%" fx="18.7496002%" fy="80.1015663%" r="28.8883405%" gradientTransform="translate(0.187496,0.801016),scale(1.000000,0.650998),rotate(34.983961),scale(1.000000,1.526475),translate(-0.187496,-0.801016)" id="radialGradient-2">
            <stop stop-color="#FFE100" offset="0%"></stop>
            <stop stop-color="#FFF500" stop-opacity="0" offset="100%"></stop>
        </radialGradient>
        <radialGradient cx="22.4268793%" cy="19.0440273%" fx="22.4268793%" fy="19.0440273%" r="34.847003%" gradientTransform="translate(0.224269,0.190440),scale(1.000000,0.650998),rotate(-28.049657),scale(1.000000,1.656105),translate(-0.224269,-0.190440)" id="radialGradient-3">
            <stop stop-color="#FF2DA5" offset="0%"></stop>
            <stop stop-color="#FF32AF" stop-opacity="0" offset="100%"></stop>
        </radialGradient>
        <path d="M364.919203,255.104117 L364.926525,254.852546 C364.934923,254.584045 364.94626,254.315461 364.96055,254.046842 C365.58209,242.24784 371.840095,230.975201 382.617101,224.389689 L383.425781,223.909276 L410.134059,208.489245 C436.685093,193.159998 445.791633,159.225747 430.474084,132.694974 C415.32673,106.458988 381.967292,97.2875167 355.552044,111.910874 L354.664308,112.412817 L274.539474,158.672912 C256.838784,168.89241 234.211322,162.838656 223.999623,145.151474 C213.945027,127.736402 219.676003,105.536377 236.750959,95.1023733 L237.55964,94.6219602 L317.684474,48.3618657 C379.636887,12.5936231 458.833004,33.7817622 494.573951,95.6868988 C525.534312,149.311817 513.730994,215.899346 469.749873,256.002697 C513.730994,296.100654 525.534312,362.688183 494.573951,416.313101 C458.833004,478.218238 379.636887,499.406377 317.684474,463.638134 L317.684474,463.638134 L237.55964,417.37804 L236.750959,416.897627 C219.676003,406.463623 213.945027,384.263598 223.999623,366.848526 C234.211322,349.161344 256.838784,343.10759 274.539474,353.327088 L274.539474,353.327088 L354.664308,399.587183 L355.552044,400.089126 C381.967292,414.712483 415.32673,405.541012 430.474084,379.305026 C445.791633,352.774253 436.685093,318.840002 410.134059,303.510755 L410.134059,303.510755 L383.425781,288.090724 L382.617101,287.610311 C371.67728,280.925308 365.394035,269.410485 364.935494,257.418711 C364.932505,257.328019 364.929349,257.237732 364.926525,257.147454 C364.917748,256.876619 364.912347,256.60514 364.909941,256.333485 L364.909941,255.666515 C364.911602,255.478959 364.914691,255.291488 364.919203,255.104117 Z" id="path-4"></path>
        <linearGradient x1="66.9287386%" y1="81.1514319%" x2="63.6464381%" y2="26.787537%" id="linearGradient-5">
            <stop stop-color="#FFDD00" offset="0%"></stop>
            <stop stop-color="#EA1ED1" offset="100%"></stop>
        </linearGradient>
    </defs>
    <g id="页面-1" stroke="none" stroke-width="1" fill="none" fill-rule="evenodd">
        <g id="logo-3" transform="translate(-144.000000, -4246.000000)">
            <g id="编组-7" transform="translate(0.000000, 4202.000000)">
                <g id="EX3_logo" transform="translate(144.000000, 44.000000)">
                    <rect id="矩形" x="0" y="0" width="512" height="512"></rect>
                    <g id="形状结合" fill-rule="nonzero">
                        <use fill="url(#linearGradient-1)" xlink:href="#path-4"></use>
                        <use fill="url(#radialGradient-2)" xlink:href="#path-4"></use>
                        <use fill="url(#radialGradient-3)" xlink:href="#path-4"></use>
                    </g>
                    <path d="M129.331975,287.610311 L128.523295,288.090724 L101.815017,303.510755 C75.2639826,318.840002 66.1574433,352.774253 81.4749921,379.305026 C96.622346,405.541012 129.981784,414.712483 156.397032,400.089126 L157.284768,399.587183 L237.409602,353.327088 C255.110292,343.10759 277.737754,349.161344 287.949453,366.848526 C298.004049,384.263598 292.273073,406.463623 275.198117,416.897627 L274.389436,417.37804 L194.264602,463.638134 C132.312189,499.406377 53.1160723,478.218238 17.375125,416.313101 C-13.585236,362.688183 -1.78191845,296.100654 42.1992028,255.997303 C-1.78191845,215.899346 -13.585236,149.311817 17.375125,95.6868988 C53.1160723,33.7817622 132.312189,12.5936231 194.264602,48.3618657 L194.264602,48.3618657 L274.389436,94.6219602 L275.198117,95.1023733 C292.273073,105.536377 298.004049,127.736402 287.949453,145.151474 C277.737754,162.838656 255.110292,168.89241 237.409602,158.672912 L237.409602,158.672912 L157.284768,112.412817 L156.397032,111.910874 C129.981784,97.2875167 96.622346,106.458988 81.4749921,132.694974 C66.1574433,159.225747 75.2639826,193.159998 101.815017,208.489245 L101.815017,208.489245 L128.523295,223.909276 L129.331975,224.389689 C140.601446,231.276132 146.92948,243.287853 147.039135,255.666515 L147.039135,256.333485 C146.92948,268.712147 140.601446,280.723868 129.331975,287.610311 Z" id="蒙版" fill="url(#linearGradient-5)" fill-rule="nonzero"></path>
                </g>
            </g>
        </g>
    </g>
</svg>