<?xml version="1.0" encoding="UTF-8"?>
<svg width="357px" height="68px" viewBox="0 0 357 120" version="1.1" xmlns="http://www.w3.org/2000/svg" xmlns:xlink="http://www.w3.org/1999/xlink">
    <title>EX3_B_H</title>
    <defs>
        <linearGradient x1="52.5897086%" y1="27.8768621%" x2="34.6401463%" y2="78.1978872%" id="linearGradient-1">
            <stop stop-color="#0DCEF2" offset="0%"></stop>
            <stop stop-color="#BCDD3C" offset="100%"></stop>
        </linearGradient>
        <radialGradient cx="18.7496002%" cy="80.1015663%" fx="18.7496002%" fy="80.1015663%" r="28.9000847%" gradientTransform="translate(0.187496,0.801016),scale(1.000000,0.650194),rotate(35.017219),scale(1.000000,1.526475),translate(-0.187496,-0.801016)" id="radialGradient-2">
            <stop stop-color="#FFE100" offset="0%"></stop>
            <stop stop-color="#FFF500" stop-opacity="0" offset="100%"></stop>
        </radialGradient>
        <radialGradient cx="22.4268793%" cy="19.0440273%" fx="22.4268793%" fy="19.0440273%" r="34.8565329%" gradientTransform="translate(0.224269,0.190440),scale(1.000000,0.650194),rotate(-28.079043),scale(1.000000,1.656105),translate(-0.224269,-0.190440)" id="radialGradient-3">
            <stop stop-color="#FF2DA5" offset="0%"></stop>
            <stop stop-color="#FF32AF" stop-opacity="0" offset="100%"></stop>
        </radialGradient>
        <path d="M131.737116,17.2711627 C139.99198,31.5690077 136.859003,49.3153563 125.151588,60.0005254 C136.859003,70.6846437 139.99198,88.4309923 131.737116,102.728837 C122.206196,119.236874 101.103767,124.896591 84.6035209,115.370169 L84.6035209,115.370169 L63.263279,103.049375 L63.0478991,102.921419 C58.5002813,100.142311 56.9766011,94.2249491 59.6578267,89.58093 C62.3809465,84.8643482 68.410212,83.2472862 73.1245681,85.9691209 L73.1245681,85.9691209 L94.4648101,98.2899154 L94.7012489,98.4235992 C101.736707,102.318191 110.625628,99.8684648 114.664922,92.8722017 C118.749602,85.797329 116.328278,76.7522868 109.256744,72.6695347 L109.256744,72.6695347 L102.14333,68.5626032 L101.92795,68.4346479 C98.8963057,66.581971 97.2085442,63.3346073 97.214547,59.9995662 C97.2088816,56.6647435 98.8966087,53.4178438 101.92795,51.5653521 L102.14333,51.4373968 L109.256744,47.3304653 C116.328278,43.2477132 118.749602,34.202671 114.664922,27.1277983 C110.625628,20.1315352 101.736707,17.6818086 94.7012489,21.5764008 L94.4648101,21.7100846 L73.1245681,34.0308791 C68.410212,36.7527138 62.3809465,35.1356518 59.6578267,30.41907 C56.9766011,25.7750509 58.5002813,19.8576885 63.0478991,17.0785806 L63.263279,16.9506253 L84.6035209,4.62983086 C101.103767,-4.89659077 122.206196,0.763126284 131.737116,17.2711627 Z" id="path-4"></path>
        <linearGradient x1="66.8869621%" y1="81.1514319%" x2="63.6127616%" y2="26.787537%" id="linearGradient-5">
            <stop stop-color="#FFDD00" offset="0%"></stop>
            <stop stop-color="#EA1ED1" offset="100%"></stop>
        </linearGradient>
    </defs>
    <g id="页面-1" stroke="none" stroke-width="1" fill="none" fill-rule="evenodd">
        <g id="logo-3" transform="translate(-198.000000, -5822.000000)" fill-rule="nonzero">
            <g id="编组-7备份-2" transform="translate(0.000000, 5402.000000)">
                <g id="编组-5" transform="translate(198.000000, 420.000000)">
                    <g id="编组-16" transform="translate(177.000000, 28.000000)">
                        <path d="M39,25.0000643 C42.3137085,25.0000643 45,27.6863558 45,31.0000643 C45,34.2384612 42.4344251,36.877636 39.2249383,36.9959258 L39,37.0000643 L12,37 L12,50 L55,50.0000643 C58.3137085,50.0000643 61,52.6863558 61,56.0000643 C61,59.2384612 58.4344251,61.877636 55.2249383,61.9959258 L55,62.0000643 L6,62.0000643 C2.6862915,62.0000643 0,59.3137728 0,56.0000643 L0,31.0000643 C0,27.6863558 2.6862915,25.0000643 6,25.0000643 L39,25.0000643 Z M92.2068782,35.3510409 C94.6839514,33.3270221 98.3393967,33.6006897 100.484456,36.0138812 C102.685964,38.4905778 102.46288,42.2830121 99.986183,44.4845202 L99.986183,44.4845202 L81.986183,60.4845202 L81.7931218,60.6490876 C79.3160486,62.6731064 75.6606033,62.3994389 73.5155441,59.9862473 C71.314036,57.5095507 71.5371204,53.7171165 74.013817,51.5156084 L74.013817,51.5156084 L92.013817,35.5156084 Z M118.793122,35.3510409 L118.986183,35.5156084 L136.986183,51.5156084 C139.46288,53.7171165 139.685964,57.5095507 137.484456,59.9862473 C135.339397,62.3994389 131.683951,62.6731064 129.206878,60.6490876 L129.013817,60.4845202 L111.013817,44.4845202 C108.53712,42.2830121 108.314036,38.4905778 110.515544,36.0138812 C112.660603,33.6006897 116.316049,33.3270221 118.793122,35.3510409 Z M81.7931218,2.35104093 L81.986183,2.51560836 L99.986183,18.5156084 C102.46288,20.7171165 102.685964,24.5095507 100.484456,26.9862473 C98.3393967,29.3994389 94.6839514,29.6731064 92.2068782,27.6490876 L92.013817,27.4845202 L74.013817,11.4845202 C71.5371204,9.28301208 71.314036,5.49057785 73.5155441,3.01388124 C75.6606033,0.600689666 79.3160486,0.327022147 81.7931218,2.35104093 Z M129.206878,2.35104093 C131.683951,0.327022147 135.339397,0.600689666 137.484456,3.01388124 C139.685964,5.49057785 139.46288,9.28301208 136.986183,11.4845202 L136.986183,11.4845202 L118.986183,27.4845202 L118.793122,27.6490876 C116.316049,29.6731064 112.660603,29.3994389 110.515544,26.9862473 C108.314036,24.5095507 108.53712,20.7171165 111.013817,18.5156084 L111.013817,18.5156084 L129.013817,2.51560836 Z M55,1.00006427 C58.3137085,1.00006427 61,3.68635577 61,7.00006427 C61,10.2384612 58.4344251,12.877636 55.2249383,12.9959258 L55,13.0000643 L6,13.0000643 C2.6862915,13.0000643 0,10.3137728 0,7.00006427 C0,3.76166733 2.56557489,1.12249251 5.77506174,1.00420274 L6,1.00006427 L55,1.00006427 Z" id="形状结合" fill="#0A1147"></path>
                        <path d="M169.661017,0 C172.419695,0 175.012467,1.12512435 176.908264,2.92215855 C178.80545,4.72050831 180,7.1846408 180,9.85245902 C180,12.0651697 179.178517,14.1374164 177.816207,15.8064646 C179.179354,17.518515 180,19.6432393 180,21.9016393 C180,24.5714878 178.852847,27.0547777 177.019894,28.8913269 C175.181592,30.7332361 172.658155,31.9183633 169.945113,31.9959383 L169.945113,31.9959383 L169.668354,32 L152.939949,32 L152.81162,31.9976376 C151.749242,31.961085 150.7932,31.5050755 150.10436,30.7894951 C149.420574,30.0791636 149,29.113329 149,28.0491803 C149,27.0002412 149.408653,26.0468369 150.0752,25.3394828 C150.749356,24.6240542 151.687476,24.1607345 152.733515,24.1041764 L152.733515,24.1041764 L152.934702,24.0983607 L169.651557,24.0983607 L169.745526,24.0965825 C170.364941,24.070664 170.950065,23.7710199 171.386972,23.3514932 C171.801451,22.9535027 172.101695,22.4360522 172.101695,21.9016393 C172.101695,21.3762112 171.810901,20.8669933 171.407574,20.4717693 C170.980676,20.0534482 170.407693,19.7507032 169.797997,19.7095723 L169.797997,19.7095723 L169.645737,19.704918 L157.852391,19.704918 L157.704538,19.7013644 L157.579202,19.6947275 C157.53697,19.6917132 157.493836,19.6879226 157.450688,19.6834174 C157.399322,19.6780446 157.348961,19.6717839 157.290302,19.6633118 L157.290302,19.6633118 L157.231038,19.6542254 C157.184803,19.6467513 157.139118,19.6385288 157.09364,19.6295151 L157.09364,19.6295151 L156.991488,19.6078528 L156.991488,19.6078528 L156.897481,19.5853896 C156.853735,19.5743673 156.810075,19.5625591 156.766731,19.550031 L156.766731,19.550031 L156.688905,19.5267752 L156.553015,19.4815806 L156.553015,19.4815806 L156.459149,19.4471809 C156.429895,19.4360348 156.400894,19.4245863 156.366285,19.4104261 L156.366285,19.4104261 L156.247077,19.359203 C156.150332,19.3157144 156.055649,19.2684472 155.963318,19.2176415 C155.925095,19.1966144 155.88689,19.1747576 155.849108,19.1522953 L155.849108,19.1522953 L155.763692,19.1000382 C155.73733,19.0834456 155.71135,19.0666628 155.685524,19.0495479 C155.651545,19.0270265 155.618158,19.004149 155.585371,18.9809381 L155.535944,18.9453784 L155.535944,18.9453784 L155.48629,18.9084734 C155.4619,18.8900408 155.438525,18.8719563 155.415537,18.8537587 L155.375379,18.8215475 L155.375379,18.8215475 L155.335097,18.7883603 C155.19244,18.6692322 155.058549,18.5404468 154.927537,18.3953856 L154.927537,18.3953856 L154.881505,18.3433295 C154.710363,18.1461197 154.558519,17.9318324 154.428784,17.7033425 C154.40685,17.6647137 154.38554,17.6256636 154.364872,17.586213 C154.07796,17.0385478 153.915254,16.4153559 153.915254,15.7540984 C153.915254,15.598686 153.92427,15.4453772 153.941943,15.2931421 C153.967211,15.0783426 154.008186,14.8746567 154.064852,14.6742274 L154.064852,14.6742274 L154.071592,14.6507349 L154.081299,14.6175792 L154.146257,14.4203017 C154.211509,14.238266 154.289711,14.0624011 154.379746,13.893869 C154.42945,13.8008204 154.48286,13.7098437 154.539707,13.6212912 L154.539707,13.6212912 L154.590948,13.5435009 C154.65418,13.4499307 154.721217,13.3593439 154.792025,13.2717086 C154.815932,13.2421291 154.839835,13.213401 154.864088,13.1850733 C154.887355,13.1578935 154.911166,13.130832 154.935354,13.1040863 C154.972165,13.0633849 155.009748,13.0235229 155.052581,12.9799637 L155.052581,12.9799637 L155.083519,12.9489052 C155.167241,12.8658349 155.254671,12.7864929 155.345647,12.7110584 C155.369195,12.6915396 155.392515,12.6726539 155.422643,12.6488599 L155.422643,12.6488599 L155.468617,12.6131522 C155.564483,12.5399072 155.663125,12.4714011 155.764941,12.4073732 C155.807724,12.3804721 155.850843,12.354496 155.90073,12.3257609 L155.90073,12.3257609 L155.943599,12.3014787 C155.984988,12.2783852 156.027772,12.2555289 156.071142,12.2333848 L156.071142,12.2333848 L156.163218,12.1878803 L156.245279,12.1497009 L156.3496,12.1045862 L156.406145,12.0816198 L156.51281,12.0410183 L156.51281,12.0410183 L156.566884,12.0217609 C156.599266,12.010498 156.631383,11.9997926 156.663722,11.989476 L156.663722,11.989476 L156.776644,11.9551808 L156.889299,11.9248787 L156.889299,11.9248787 L156.991621,11.9003141 C157.028124,11.8920641 157.065142,11.8842538 157.102318,11.8769718 L157.102318,11.8769718 L157.21527,11.8565518 C157.259736,11.8491851 157.303479,11.8426835 157.358319,11.8355617 L157.358319,11.8355617 L157.423687,11.8276936 C157.478884,11.8215482 157.534029,11.8165724 157.589506,11.8127419 L157.589506,11.8127419 L169.661017,11.8032787 C170.306723,11.8032787 170.917082,11.5318734 171.373784,11.140193 C171.785304,10.7872625 172.101695,10.3273968 172.101695,9.85245902 C172.101695,9.39137326 171.801889,8.94409416 171.408925,8.59538123 C170.969453,8.20539702 170.379854,7.9282663 169.751017,7.90342423 L169.751017,7.90342423 L169.652004,7.90163934 L152.949153,7.90163934 C151.85856,7.90163934 150.871187,7.45938241 150.15648,6.74427122 C149.441978,6.02936463 149,5.04174373 149,3.95081967 C149,2.88667102 149.420574,1.92083637 150.10436,1.21050486 C150.7932,0.494924548 151.749242,0.0389150085 152.81162,0.00236237209 L152.81162,0.00236237209 L152.939949,0 L169.661017,0 Z" id="形状结合" fill="#1ACFE4"></path>
                    </g>
                    <g id="椭圆形-+-椭圆形备份-蒙版备份-4">
                        <g id="形状结合">
                            <use fill="url(#linearGradient-1)" xlink:href="#path-4"></use>
                            <use fill="url(#radialGradient-2)" xlink:href="#path-4"></use>
                            <use fill="url(#radialGradient-3)" xlink:href="#path-4"></use>
                        </g>
                        <path d="M39.1499731,60.0885456 L39.1490919,60.1324782 C39.148615,60.1638315 39.1479882,60.195191 39.1472112,60.2265557 C39.0789397,63.481246 37.3996721,66.6240058 34.4368119,68.4346479 L34.221432,68.5626032 L27.108018,72.6695347 C20.0364839,76.7522868 17.6151599,85.797329 21.6998396,92.8722017 C25.739134,99.8684648 34.6280543,102.318191 41.6635128,98.4235992 L41.8999516,98.2899154 L63.2401936,85.9691209 C67.9545497,83.2472862 73.9838152,84.8643482 76.706935,89.58093 C79.3881606,94.2249491 77.8644804,100.142311 73.3168626,102.921419 L73.1014827,103.049375 L51.7612408,115.370169 C35.2609945,124.896591 14.1585653,119.236874 4.62764604,102.728837 C-3.6273392,88.4307834 -0.49415015,70.6841253 11.2136871,59.9990063 C-0.49415015,49.3158747 -3.6273392,31.5692166 4.62764604,17.2711627 C14.1585653,0.763126284 35.2609945,-4.89659077 51.7612408,4.62983086 L51.7612408,4.62983086 L73.1014827,16.9506253 L73.3168626,17.0785806 C77.8644804,19.8576885 79.3881606,25.7750509 76.706935,30.41907 C73.9838152,35.1356518 67.9545497,36.7527138 63.2401936,34.0308791 L63.2401936,34.0308791 L41.8999516,21.7100846 L41.6635128,21.5764008 C34.6280543,17.6818086 25.739134,20.1315352 21.6998396,27.1277983 C17.6151599,34.202671 20.0364839,43.2477132 27.108018,47.3304653 L27.108018,47.3304653 L34.221432,51.4373968 L34.4368119,51.5653521 C37.3996721,53.3759942 39.0789397,56.518754 39.1480117,59.7735816 C39.1479882,59.804809 39.148615,59.8361685 39.1490919,59.8675218 C39.1497284,59.8821373 39.1498671,59.8967949 39.1499731,59.9114544 L39.1499731,60.0885456 L39.1499731,60.0885456 Z" id="蒙版" fill="url(#linearGradient-5)"></path>
                    </g>
                </g>
            </g>
        </g>
    </g>
</svg>